<?xml version="1.0" encoding="UTF-8"?>
<svg version="1.1" xmlns="http://www.w3.org/2000/svg" width="95" height="86">
<path d="M0 0 C31.35 0 62.7 0 95 0 C95 28.38 95 56.76 95 86 C63.65 86 32.3 86 0 86 C0 57.62 0 29.24 0 0 Z " fill="#EEF5FE" transform="translate(0,0)"/>
<path d="M0 0 C31.35 0 62.7 0 95 0 C95 28.38 95 56.76 95 86 C63.65 86 32.3 86 0 86 C0 57.62 0 29.24 0 0 Z M22.5625 15.88671875 C15.32647433 25.67344347 11.7064085 36.87257969 13 49 C15.56678428 60.40468922 21.14954132 70.41117406 31 77 C42.22323021 82.63350697 52.32377687 84.82474535 64.5625 81.375 C74.94198414 77.88671273 83.50829237 71.95627764 88.5078125 61.99609375 C93.6646662 49.98799155 94.54835012 39.60896709 90.328125 27.08203125 C88.28487976 22.34050039 85.55009422 18.71591603 82 15 C81.46503906 14.43667969 80.93007812 13.87335937 80.37890625 13.29296875 C72.09980185 5.45065163 61.69664005 2.6727977 50.5703125 2.85546875 C39.94505294 3.45293775 29.83635772 8.00087781 22.5625 15.88671875 Z " fill="#FEFEFF" transform="translate(0,0)"/>
<path d="M0 0 C5.19011555 2.92926976 8.58077889 6.64524489 10.875 12.1640625 C11.81467989 18.01095957 10.10693335 22.36322947 6.875 27.1640625 C4.375 29.5390625 4.375 29.5390625 1.875 31.1640625 C1.276875 31.5765625 0.67875 31.9890625 0.0625 32.4140625 C-3.87690305 33.76471498 -8.26120699 33.71223691 -12.25 32.5390625 C-15.14863927 31.95933465 -17.38567571 33.19388515 -20.125 34.1640625 C-21.445 34.1640625 -22.765 34.1640625 -24.125 34.1640625 C-23.67213018 30.86458235 -23.22273702 27.60387907 -22.5 24.3515625 C-21.89660584 22.1275929 -21.89660584 22.1275929 -23.125 20.1640625 C-23.74261735 14.19376142 -22.98292894 10.86342038 -19.55859375 5.92578125 C-14.55223928 -0.22644182 -7.62436122 -2.99928916 0 0 Z " fill="#EBF3FE" transform="translate(59.125,26.8359375)"/>
<path d="M0 0 C5.19011555 2.92926976 8.58077889 6.64524489 10.875 12.1640625 C11.81467989 18.01095957 10.10693335 22.36322947 6.875 27.1640625 C4.375 29.5390625 4.375 29.5390625 1.875 31.1640625 C1.276875 31.5765625 0.67875 31.9890625 0.0625 32.4140625 C-3.87690305 33.76471498 -8.26120699 33.71223691 -12.25 32.5390625 C-15.14863927 31.95933465 -17.38567571 33.19388515 -20.125 34.1640625 C-21.445 34.1640625 -22.765 34.1640625 -24.125 34.1640625 C-23.67213018 30.86458235 -23.22273702 27.60387907 -22.5 24.3515625 C-21.89660584 22.1275929 -21.89660584 22.1275929 -23.125 20.1640625 C-23.74261735 14.19376142 -22.98292894 10.86342038 -19.55859375 5.92578125 C-14.55223928 -0.22644182 -7.62436122 -2.99928916 0 0 Z M-17.25 8.33984375 C-19.61190996 11.89747062 -19.50829236 13.93859015 -19.3125 18.1640625 C-19.14455413 22.37632654 -19.10684939 26.06037149 -20.125 30.1640625 C-19.50753906 30.091875 -18.89007813 30.0196875 -18.25390625 29.9453125 C-13.8954026 29.46766826 -9.81450732 29.15206023 -5.4375 29.4765625 C-0.89258411 29.55728925 1.32488905 27.80479151 4.5625 24.76953125 C7.27147431 21.45587517 7.32089725 17.62710127 7.30078125 13.5234375 C6.56111227 9.42472132 3.94301792 6.83466877 0.875 4.1640625 C-5.75882806 0.84714847 -12.41136172 3.38557625 -17.25 8.33984375 Z " fill="#2B6DFC" transform="translate(59.125,26.8359375)"/>
</svg>
